<?xml version="1.0" encoding="utf-8"?>
<!-- Generator: Adobe Illustrator 23.0.1, SVG Export Plug-In . SVG Version: 6.00 Build 0)  -->
<svg version="1.1" id="katman_1" xmlns="http://www.w3.org/2000/svg" xmlns:xlink="http://www.w3.org/1999/xlink" x="0px" y="0px"
	 viewBox="0 0 612 612" style="enable-background:new 0 0 612 612;" xml:space="preserve">
<style type="text/css">
	.st0{fill:#232436;}
	.st1{fill:#52BECD;}
	.st2{display:none;fill:#52BECD;}
	.st3{display:none;}
	.st4{display:inline;fill:#52BECD;}
	.st5{display:inline;fill:none;stroke:#CD525F;stroke-miterlimit:10;}
	.st6{display:inline;fill:none;}
</style>
<g>
	
		<image style="overflow:visible;enable-background:new    ;" width="215" height="215" xlink:href="CCC032B9.jpeg"  transform="matrix(2.8465 0 0 2.8465 0 0)">
	</image>
	<rect class="st0" width="612" height="612"/>
	<path class="st1" d="M318.8,173.8c-42,0-84.1,0-126.1,0C151.1,214.9,109.6,256,68,297.1c41.6,43.4,83.1,86.9,124.7,130.3
		c42,0,84.1,0,126.1,0c-6-3.8-14.1-9.7-22-18.7c-8-9.2-13-18.2-15.9-24.8c-22.4,0-44.8,0-67.3,0c-22.4-22-44.8-43.9-67.3-65.9
		c36,0,71.9,0,107.9,0c0-12.6,0-25.2,0-37.8c-36,0-71.9,0-107.9,0c22.4-22.4,44.8-44.8,67.3-67.3c22.4,0,44.8,0,67.3,0
		c2.8-5.9,7.7-14.4,15.9-22.8C304.9,181.9,313,176.8,318.8,173.8z"/>
	<path class="st1" d="M477.2,213c12.6-13.1,25.2-26.2,37.8-39.2c-42,0-84.1,0-126.1,0c-13.1,3-43.7,11.9-70,39.2
		c-8.7,9-37.4,38.7-37.8,84.1c-0.5,44.9,27,75,37.8,86.9c25.7,28.2,55.6,39.2,70,43.4c42,0,84.1,0,126.1,0
		c-12.6-14.5-25.2-29-37.8-43.4c-29.4,0-58.9,0-88.3,0c-9.4-2.9-22.3-8.4-35-18.6c-6.6-5.3-18.6-15.2-26.9-32.8
		c-2.7-5.7-8.4-18.3-8.1-35.5c0.4-17.5,6.9-30.1,10.1-36.2c8.2-15.4,18.9-24.3,24.9-29.1c12.9-10.4,25.9-15.9,35-18.8
		C418.3,213,447.7,213,477.2,213z"/>
	<circle class="st1" cx="433" cy="470.4" r="25.6"/>
	<circle class="st2" cx="306" cy="306" r="306"/>
</g>
<g class="st3">
	<path class="st4" d="M630.5,415.3"/>
	<line class="st5" x1="56.7" y1="427.4" x2="603.3" y2="427.4"/>
	<path class="st4" d="M633.7,440.4"/>
	<line class="st5" x1="32" y1="384" x2="590.2" y2="384"/>
	<line class="st5" x1="32" y1="318.1" x2="570.7" y2="318.1"/>
	<line class="st5" x1="25.5" y1="297.1" x2="579.8" y2="297.1"/>
	<line class="st5" x1="12.4" y1="280.3" x2="612" y2="280.3"/>
	<line class="st5" x1="12.4" y1="213" x2="590.2" y2="213"/>
	<line class="st5" x1="17.6" y1="173.8" x2="603.3" y2="173.8"/>
	<line class="st5" x1="192.7" y1="89.3" x2="192.7" y2="580"/>
	<line class="st5" x1="213.7" y1="54.2" x2="213.7" y2="572.1"/>
	<line class="st5" x1="146.5" y1="68.5" x2="146.5" y2="721.8"/>
	<line class="st5" x1="254.4" y1="32.1" x2="254.4" y2="650.2"/>
	<path class="st5" d="M281,23c0,49.4,0,98.8,0,148.2c0,162.3,0,324.6,0,486.9"/>
	<line class="st5" x1="318.8" y1="32.1" x2="318.8" y2="677.5"/>
	<line class="st5" x1="515" y1="38.6" x2="515" y2="677.5"/>
	<line class="st5" x1="477.2" y1="38.6" x2="477.2" y2="650.2"/>
	<line class="st5" x1="388.9" y1="38.6" x2="388.9" y2="658"/>
	<path class="st5" d="M700.1,317.9"/>
	<polyline class="st5" points="281,171.1 299.9,171.1 318.8,171.1 	"/>
	<line class="st5" x1="299.9" y1="529.4" x2="299.9" y2="171.1"/>
	<polyline class="st5" points="318.8,213 353.8,213 388.9,213 	"/>
	<line class="st5" x1="353.8" y1="503.6" x2="353.8" y2="213"/>
	<polyline class="st5" points="146.5,173.8 146.5,213 146.5,193.4 165.6,193.4 545,193.4 	"/>
	<path class="st4" d="M616.8,324.2"/>
	<line class="st6" x1="388.9" y1="427.4" x2="477.2" y2="427.4"/>
	<line class="st5" x1="570.7" y1="405.7" x2="146.5" y2="405.7"/>
	<polyline class="st5" points="146.5,318.1 146.5,350.3 146.5,384 146.5,405.7 146.5,427.4 	"/>
	<line class="st5" x1="95.5" y1="350.3" x2="579.8" y2="350.3"/>
	<polyline class="st5" points="106.9,246.6 579.8,246.6 603.3,248.9 570.7,280.3 570.7,246.6 570.7,213 	"/>
</g>
<rect x="24" y="439" class="st0" width="562" height="151"/>
<circle class="st1" cx="407.4" cy="483.5" r="26.2"/>
</svg>
